<svg width="188" height="229" viewBox="0 0 188 229" fill="none" xmlns="http://www.w3.org/2000/svg">
<g clip-path="url(#clip0_101_11)">
<path d="M99.368 87.436L97.651 116.166C97.651 116.166 103.467 132.708 101.843 155.733C100.28 177.918 94.4176 189.143 92.8088 193.03C91.2001 196.917 86.6832 201.783 92.8088 203.726C98.934 205.669 109.268 204.706 113.784 203.073C118.301 201.456 120.544 192.439 121.209 188.801C122.834 179.799 123.731 162.776 120.436 145.985C117.915 133.081 112.562 110.958 112.562 110.958L99.368 87.436Z" fill="#99C23B"/>
<path d="M98.301 83.083C98.301 83.083 104.921 62.203 120.143 46.361C134.73 31.187 149.626 26.212 161.568 24.72C174.732 23.072 180.1 23.243 182.358 24.875C184.616 26.508 183.812 29.073 183.858 31.343C184.152 47.574 184.756 68.609 165.76 87.856C145.48 108.378 131.033 112.062 115.208 113.695C99.399 115.312 101.193 108.067 101.193 108.067L98.301 83.083Z" fill="#99C23B"/>
<path d="M-0.390405 70.101C-0.962755 72.946 13.9801 106.34 42.8448 116.85C73.9215 128.184 103.219 116.85 103.219 116.85L105.632 86.783L98.285 83.082C98.285 83.082 82.7077 65.81 65.3982 59.436C47.4544 52.828 27.1749 52.315 13.3613 59.731C4.6988 64.395 -0.0810346 68.593 -0.390405 70.101Z" fill="#99C23B"/>
<path d="M129.083 60.198C114.697 77.331 107.442 94.603 106.684 99.112C105.926 103.621 108.417 103.434 109.825 101.522C112.361 98.07 121.194 82.29 134.343 67.256C145.728 54.259 163.053 40.205 165.589 37.204C167.167 35.339 165.435 32.991 163.053 34.048C160.67 35.09 143.794 42.677 129.083 60.198Z" fill="#E6DC9F"/>
<path d="M59.0871 76.243C38.0496 68.967 22.6582 69.946 19.518 71.003C16.3779 72.061 16.5326 75.512 20.2605 75.963C23.9885 76.414 39.1943 77.937 58.2518 84.824C78.5932 92.194 93.0874 103.31 95.64 104.818C98.177 106.326 99.832 103.31 97.589 100.605C95.872 98.568 82.2902 84.265 59.0871 76.243Z" fill="#E6DC9F"/>
<path d="M188 211.962C188 241.021 140.924 224.104 114.143 224.104C87.3614 224.104 47 241.021 47 211.962C47 182.902 85.7937 166.629 114.143 182.01C143.984 141.537 169.349 187.677 188 211.962Z" fill="#332011"/>
</g>
<defs>
<clipPath id="clip0_101_11">
<rect width="188" height="229" fill="white"/>
</clipPath>
</defs>
</svg>
