<svg width="261" height="204" viewBox="0 0 261 204" fill="none" xmlns="http://www.w3.org/2000/svg">
<mask id="path-1-inside-1" fill="white">
<path fill-rule="evenodd" clip-rule="evenodd" d="M72.3013 0H187.56V0.0948757C197.322 1.2533 210.135 14.3247 218.811 33.0565C229.608 52.4194 233.91 64.6504 234.461 72.5011C235.074 78.0299 235.042 88.0507 234.09 105.015C234.09 125.731 230.115 125.684 222.989 125.598C222.533 125.593 222.064 125.587 221.582 125.587C220.808 125.587 219.982 125.614 219.125 125.642C211.121 125.904 200.472 126.252 205.094 104.995C205.097 99.89 205.858 95.1156 207.178 91.0424C204.075 88.8365 199.507 80.8193 187.56 59.0833V156.422H72.3013V60.3969C61.6494 79.207 56.5338 88.036 53.2423 91.7319C53.5524 94.4902 53.7175 97.5868 53.7177 101.053C53.7189 125.3 47.5403 124.513 40.6584 123.637C39.3403 123.469 37.9964 123.298 36.6651 123.299C42.3786 136.971 19.4285 196.957 21.007 101.053C21.007 83.194 22.1713 74.2838 24.0413 70.2365C25.7489 62.2468 30.5166 50.8123 39.9975 34.3035C49.0459 15.4171 62.2066 2.08512 72.3013 0.457128V0Z"/>
</mask>
<path fill-rule="evenodd" clip-rule="evenodd" d="M72.3013 0H187.56V0.0948757C197.322 1.2533 210.135 14.3247 218.811 33.0565C229.608 52.4194 233.91 64.6504 234.461 72.5011C235.074 78.0299 235.042 88.0507 234.09 105.015C234.09 125.731 230.115 125.684 222.989 125.598C222.533 125.593 222.064 125.587 221.582 125.587C220.808 125.587 219.982 125.614 219.125 125.642C211.121 125.904 200.472 126.252 205.094 104.995C205.097 99.89 205.858 95.1156 207.178 91.0424C204.075 88.8365 199.507 80.8193 187.56 59.0833V156.422H72.3013V60.3969C61.6494 79.207 56.5338 88.036 53.2423 91.7319C53.5524 94.4902 53.7175 97.5868 53.7177 101.053C53.7189 125.3 47.5403 124.513 40.6584 123.637C39.3403 123.469 37.9964 123.298 36.6651 123.299C42.3786 136.971 19.4285 196.957 21.007 101.053C21.007 83.194 22.1713 74.2838 24.0413 70.2365C25.7489 62.2468 30.5166 50.8123 39.9975 34.3035C49.0459 15.4171 62.2066 2.08512 72.3013 0.457128V0Z" fill="white"/>
<path d="M187.56 0H188.41V-0.85H187.56V0ZM72.3013 0V-0.85H71.4513V0H72.3013ZM187.56 0.0948757H186.71V0.849979L187.459 0.938954L187.56 0.0948757ZM218.811 33.0565L218.04 33.4138L218.054 33.4427L218.069 33.4705L218.811 33.0565ZM234.461 72.5011L233.613 72.5605L233.614 72.5777L233.616 72.5949L234.461 72.5011ZM234.09 105.015L233.242 104.967L233.24 104.991V105.015H234.09ZM222.989 125.598L222.999 124.748L222.989 125.598ZM221.582 125.587L221.582 126.437H221.582L221.582 125.587ZM219.125 125.642L219.153 126.491L219.125 125.642ZM205.094 104.995L205.925 105.176L205.944 105.087L205.944 104.996L205.094 104.995ZM207.178 91.0424L207.987 91.3044L208.179 90.711L207.671 90.3496L207.178 91.0424ZM187.56 59.0833L188.305 58.6738L186.71 59.0833H187.56ZM187.56 156.422V157.272H188.41V156.422H187.56ZM72.3013 156.422H71.4513V157.272H72.3013V156.422ZM72.3013 60.3969H73.1513V57.1709L71.5617 59.978L72.3013 60.3969ZM53.2423 91.7319L52.6076 91.1666L52.3553 91.4499L52.3977 91.8269L53.2423 91.7319ZM53.7177 101.053L54.5677 101.053V101.053L53.7177 101.053ZM40.6584 123.637L40.551 124.48L40.6584 123.637ZM36.6651 123.299L36.6646 122.449L35.3891 122.45L35.8809 123.627L36.6651 123.299ZM21.007 101.053L21.857 101.067V101.053H21.007ZM24.0413 70.2365L24.8129 70.593L24.8527 70.5069L24.8725 70.4142L24.0413 70.2365ZM39.9975 34.3035L40.7346 34.7268L40.7504 34.6993L40.7641 34.6707L39.9975 34.3035ZM72.3013 0.457128L72.4366 1.29629L73.1513 1.18103V0.457128H72.3013ZM187.56 -0.85H72.3013V0.85H187.56V-0.85ZM188.41 0.0948757V0H186.71V0.0948757H188.41ZM219.583 32.6993C215.211 23.2621 209.789 15.2298 204.207 9.39792C198.649 3.59214 192.833 -0.135327 187.66 -0.749203L187.459 0.938954C192.049 1.4835 197.52 4.87096 202.979 10.5735C208.412 16.2498 213.735 24.1191 218.04 33.4138L219.583 32.6993ZM235.309 72.4416C234.744 64.3912 230.358 52.02 219.554 32.6426L218.069 33.4705C228.857 52.8187 233.076 64.9097 233.613 72.5605L235.309 72.4416ZM234.939 105.063C235.891 88.102 235.928 78.0154 235.306 72.4073L233.616 72.5949C234.221 78.0443 234.194 87.9994 233.242 104.967L234.939 105.063ZM222.979 126.448C226.437 126.49 229.712 126.587 231.897 123.61C232.953 122.172 233.703 120.087 234.196 117.122C234.691 114.149 234.94 110.214 234.94 105.015H233.24C233.24 110.174 232.992 114.002 232.519 116.843C232.045 119.693 231.355 121.476 230.527 122.604C228.943 124.762 226.667 124.792 222.999 124.748L222.979 126.448ZM221.582 126.437C222.058 126.437 222.522 126.443 222.979 126.448L222.999 124.748C222.544 124.743 222.07 124.737 221.583 124.737L221.582 126.437ZM219.153 126.491C220.013 126.463 220.824 126.437 221.582 126.437L221.583 124.737C220.792 124.736 219.951 124.764 219.097 124.792L219.153 126.491ZM204.263 104.815C201.941 115.496 203.35 121.179 206.835 124.045C208.548 125.454 210.662 126.085 212.798 126.359C214.929 126.631 217.164 126.556 219.153 126.491L219.097 124.792C217.084 124.858 214.986 124.925 213.014 124.672C211.046 124.42 209.286 123.859 207.915 122.732C205.229 120.523 203.625 115.752 205.925 105.176L204.263 104.815ZM206.37 90.7803C205.02 94.9447 204.247 99.8079 204.244 104.995L205.944 104.996C205.947 99.972 206.696 95.2865 207.987 91.3044L206.37 90.7803ZM186.815 59.4927C192.786 70.3559 196.924 77.8113 199.958 82.8267C201.476 85.3344 202.728 87.2503 203.804 88.6849C204.875 90.1118 205.804 91.1083 206.686 91.7351L207.671 90.3496C207.001 89.8735 206.196 89.0406 205.164 87.6647C204.137 86.2964 202.919 84.4359 201.413 81.9466C198.401 76.9679 194.281 69.5467 188.305 58.6738L186.815 59.4927ZM188.41 156.422V59.0833H186.71V156.422H188.41ZM72.3013 157.272H187.56V155.572H72.3013V157.272ZM71.4513 60.3969V156.422H73.1513V60.3969H71.4513ZM53.8771 92.2972C55.5819 90.383 57.7199 87.188 60.7399 82.1705C63.7686 77.1386 67.7162 70.2187 73.0409 60.8157L71.5617 59.978C66.2345 69.3852 62.2983 76.2848 59.2834 81.2939C56.2598 86.3174 54.1943 89.3849 52.6076 91.1666L53.8771 92.2972ZM54.5677 101.053C54.5675 97.5604 54.4012 94.4316 54.087 91.637L52.3977 91.8269C52.7037 94.5488 52.8675 97.6133 52.8677 101.053L54.5677 101.053ZM40.551 124.48C43.8938 124.906 47.658 125.442 50.4065 122.328C51.7463 120.81 52.7763 118.5 53.4779 115.106C54.1808 111.704 54.568 107.143 54.5677 101.053L52.8677 101.053C52.868 107.085 52.4833 111.519 51.813 114.762C51.1414 118.012 50.1968 119.997 49.1319 121.203C47.0709 123.539 44.3048 123.244 40.7657 122.794L40.551 124.48ZM36.6657 124.149C37.9336 124.148 39.2234 124.311 40.551 124.48L40.7657 122.794C39.4571 122.627 38.0592 122.448 36.6646 122.449L36.6657 124.149ZM20.1571 101.039C19.7624 125.021 20.8972 139.348 22.7647 147.11C23.233 149.056 23.7533 150.616 24.3206 151.824C24.8838 153.023 25.5186 153.93 26.2452 154.507C26.9989 155.107 27.8454 155.343 28.7204 155.181C29.5557 155.026 30.3128 154.528 30.9808 153.875C32.3117 152.574 33.539 150.411 34.5902 147.882C35.6508 145.331 36.5666 142.324 37.2373 139.259C37.9079 136.195 38.3382 133.051 38.4176 130.226C38.4965 127.422 38.2329 124.846 37.4494 122.971L35.8809 123.627C36.5257 125.17 36.7948 127.459 36.7183 130.178C36.6424 132.876 36.2294 135.912 35.5766 138.896C34.9238 141.879 34.036 144.787 33.0205 147.229C31.9958 149.694 30.8747 151.601 29.7925 152.659C29.254 153.186 28.7885 153.439 28.4109 153.509C28.0731 153.572 27.7165 153.505 27.303 153.177C26.8625 152.826 26.3658 152.18 25.8593 151.102C25.3569 150.032 24.8694 148.59 24.4175 146.712C22.6044 139.176 21.4624 125.036 21.8569 101.067L20.1571 101.039ZM23.2696 69.88C22.2747 72.0334 21.505 75.3857 20.9776 80.376C20.4484 85.3835 20.157 92.1087 20.157 101.053H21.857C21.857 92.1378 22.1478 85.4787 22.6682 80.5546C23.1904 75.6133 23.9379 72.4869 24.8129 70.593L23.2696 69.88ZM39.2604 33.8802C29.7661 50.4124 24.9457 61.9385 23.21 70.0588L24.8725 70.4142C26.5522 62.5551 31.2672 51.2122 40.7346 34.7268L39.2604 33.8802ZM72.166 -0.382029C66.8507 0.475172 60.8778 4.36966 55.145 10.3186C49.3902 16.2903 43.7886 24.4231 39.231 33.9362L40.7641 34.6707C45.2548 25.2974 50.7578 17.3211 56.3691 11.4982C62.0024 5.65255 67.6572 2.06707 72.4366 1.29629L72.166 -0.382029ZM71.4513 0V0.457128H73.1513V0H71.4513Z" fill="#DEDEDE" mask="url(#path-1-inside-1)"/>
<path d="M20.7228 203.51L14.4993 196.962H247.63L242.098 203.51H20.7228Z" fill="#663D00" stroke="#573400" stroke-width="0.980397"/>
<mask id="path-4-inside-2" fill="white">
<path fill-rule="evenodd" clip-rule="evenodd" d="M80.5341 6.10352e-05H88.1787V28.2266H172.27V6.10352e-05H179.915V39.3996H179.915V65.2739H187.56V122.315H72.3013V65.2739H80.5341V39.3996V34.1071V6.10352e-05Z"/>
</mask>
<path fill-rule="evenodd" clip-rule="evenodd" d="M80.5341 6.10352e-05H88.1787V28.2266H172.27V6.10352e-05H179.915V39.3996H179.915V65.2739H187.56V122.315H72.3013V65.2739H80.5341V39.3996V34.1071V6.10352e-05Z" fill="#2B2B2B"/>
<path d="M88.1787 6.10352e-05H89.0287V-0.849939H88.1787V6.10352e-05ZM80.5341 6.10352e-05V-0.849939H79.6841V6.10352e-05H80.5341ZM88.1787 28.2266H87.3287V29.0766H88.1787V28.2266ZM172.27 28.2266V29.0766H173.12V28.2266H172.27ZM172.27 6.10352e-05V-0.849939H171.42V6.10352e-05H172.27ZM179.915 6.10352e-05H180.765V-0.849939H179.915V6.10352e-05ZM179.915 39.3996V40.2496H180.765V39.3996H179.915ZM179.915 39.3996V38.5496H179.065V39.3996H179.915ZM179.915 65.2739H179.065V66.1239H179.915V65.2739ZM187.56 65.2739H188.41V64.4239H187.56V65.2739ZM187.56 122.315V123.165H188.41V122.315H187.56ZM72.3013 122.315H71.4513V123.165H72.3013V122.315ZM72.3013 65.2739V64.4239H71.4513V65.2739H72.3013ZM80.5341 65.2739V66.1239H81.3841V65.2739H80.5341ZM88.1787 -0.849939H80.5341V0.850061H88.1787V-0.849939ZM89.0287 28.2266V6.10352e-05H87.3287V28.2266H89.0287ZM172.27 27.3766H88.1787V29.0766H172.27V27.3766ZM173.12 28.2266V6.10352e-05H171.42V28.2266H173.12ZM172.27 0.850061H179.915V-0.849939H172.27V0.850061ZM179.065 6.10352e-05V39.3996H180.765V6.10352e-05H179.065ZM179.915 38.5496H179.915V40.2496H179.915V38.5496ZM180.765 65.2739V39.3996H179.065V65.2739H180.765ZM187.56 64.4239H179.915V66.1239H187.56V64.4239ZM188.41 122.315V65.2739H186.71V122.315H188.41ZM72.3013 123.165H187.56V121.465H72.3013V123.165ZM71.4513 65.2739V122.315H73.1513V65.2739H71.4513ZM80.5341 64.4239H72.3013V66.1239H80.5341V64.4239ZM79.6841 39.3996V65.2739H81.3841V39.3996H79.6841ZM79.6841 34.1071V39.3996H81.3841V34.1071H79.6841ZM79.6841 6.10352e-05V34.1071H81.3841V6.10352e-05H79.6841Z" fill="black" mask="url(#path-4-inside-2)"/>
<path d="M99.2429 85.7286C99.2429 85.4603 99.4603 85.2429 99.7286 85.2429H160.686C160.954 85.2429 161.171 85.4603 161.171 85.7286V113.73C161.171 113.939 161.038 114.125 160.839 114.191L132.022 123.797C131.927 123.828 131.825 123.83 131.729 123.801L99.5893 114.178C99.3837 114.117 99.2429 113.928 99.2429 113.713L99.2429 85.7286Z" fill="#2A2A2A" stroke="black" stroke-width="0.485714"/>
<path d="M21.1467 110.265C21.252 109.808 21.6589 109.484 22.1279 109.484H236.183C236.644 109.484 237.047 109.797 237.16 110.244L259.459 198.419C259.62 199.055 259.139 199.673 258.483 199.673H129.143H1.81941C1.17208 199.673 0.692942 199.071 0.838228 198.44L21.1467 110.265Z" fill="#7D4B00" stroke="#6F4200" stroke-width="0.882358"/>
<path d="M28.4636 113.072C28.5654 112.656 28.9379 112.364 29.3658 112.364H226.677C227.097 112.364 227.465 112.646 227.574 113.052L248.083 189.309C248.242 189.899 247.797 190.479 247.186 190.479H128.009H10.6883C10.0858 190.479 9.64277 189.914 9.7861 189.329L28.4636 113.072Z" fill="#6B4000" stroke="#6F4200" stroke-width="0.814038"/>
<path d="M25.8882 185.664L38.341 116.45H219.081L234.691 184.599L25.8882 185.664Z" fill="#FFF8F1" stroke="#EAEAEA" stroke-width="0.242857"/>
<path d="M181.025 144.928C181.025 154.87 180.998 163.583 174.944 169.883C168.881 176.192 156.632 180.209 131.734 180.209C108.093 180.209 95.8291 176.196 89.4487 169.874C83.0827 163.565 82.443 154.832 82.443 144.928C82.443 135.253 87.8984 126.445 96.8153 120.036C105.731 113.628 118.075 109.648 131.734 109.648C145.392 109.648 157.736 113.628 166.652 120.036C175.569 126.445 181.025 135.253 181.025 144.928Z" fill="#BBBBBB" stroke="#898989" stroke-width="1.04802"/>
<mask id="path-11-inside-3" fill="white">
<path fill-rule="evenodd" clip-rule="evenodd" d="M132.201 101.029C135.859 101.029 139.269 100.771 142.141 100.325C145.131 102.059 149.452 103.857 154.388 105.303C157.613 106.247 160.699 106.924 163.414 107.322C165.039 110.155 167.452 113.499 170.401 116.867C173.022 119.86 175.679 122.432 178.059 124.36L178.092 124.864L178.092 124.864C178.275 127.696 178.473 130.76 178.541 133.763C175.833 143.544 176.054 148.264 177.343 150.492C176.127 151.886 174.785 153.375 173.307 154.891C171.663 156.578 169.848 158.361 168.048 160.128L168.048 160.129C167.483 160.684 166.919 161.238 166.362 161.787C162.963 162.455 158.499 163.971 153.806 166.167C150.647 167.645 147.792 169.24 145.442 170.79C144.63 170.8 143.8 170.813 142.96 170.825C140.958 170.855 138.898 170.886 136.871 170.886C132.852 170.886 129.132 171.197 126.096 171.727C123.064 170.136 118.786 168.536 113.94 167.29C110.246 166.34 106.743 165.728 103.769 165.461C102.034 162.756 99.5485 159.618 96.5605 156.479C92.7826 152.51 88.9679 149.343 85.9621 147.521C86.4847 144.738 86.8504 141.461 86.9861 137.946C87.1103 134.732 87.0274 131.702 86.7781 129.054C88.5962 125.308 90.491 121.54 92.2715 118.714C94.678 114.894 96.5504 111.183 97.7101 108.115C100.588 107.544 103.922 106.599 107.404 105.317C112.089 103.592 116.175 101.575 119.031 99.6892C122.388 100.516 127.049 101.029 132.201 101.029ZM118.704 93.4223C122.083 92.5467 126.88 92 132.201 92C140.053 92 146.763 93.1904 149.46 94.8711C151.773 95.279 154.303 95.8698 156.925 96.6378C159.732 97.4598 162.34 98.3958 164.618 99.3694C165.918 99.6186 167.521 100.354 169.399 101.749C171.583 103.044 173.011 104.297 173.384 105.335C173.862 105.835 174.353 106.371 174.855 106.944C176.37 108.675 177.862 110.6 179.243 112.563C181.826 113.014 187.343 123.578 187.567 133.56C187.694 139.185 187.556 144.255 186.794 147.679C186.202 151.513 184.096 156.758 179.773 161.193C174.073 167.042 164.466 172.252 159.914 173.231C159.174 173.608 158.412 173.98 157.632 174.345C156.889 174.693 156.152 175.023 155.424 175.336C151.488 177.591 143.971 179.914 136.871 179.914C130.25 179.914 124.44 179.068 121.165 177.795C118.347 177.499 115.1 176.911 111.691 176.034C108.934 175.325 106.362 174.502 104.098 173.631C100.429 173.88 93.0086 171.715 87.3676 165.788C81.8169 159.112 79.606 154.715 79.0071 151.758C78.4644 149.541 78.0966 146.637 77.9629 143.337C76.5014 141.706 76.3159 133.581 80.1944 123.268C80.3742 122.745 80.5614 122.265 80.7545 121.835C81.7872 119.287 83.0665 116.622 84.6321 113.901C85.2168 110.438 87.1264 107.446 89.3586 105.167C89.7834 104.687 90.3402 104.178 91.013 103.65C92.1235 102.734 93.2525 101.995 94.2913 101.458C96.983 99.8795 100.431 98.2629 104.284 96.8441C109.912 94.7721 115.155 93.5816 118.704 93.4223Z"/>
</mask>
<path fill-rule="evenodd" clip-rule="evenodd" d="M132.201 101.029C135.859 101.029 139.269 100.771 142.141 100.325C145.131 102.059 149.452 103.857 154.388 105.303C157.613 106.247 160.699 106.924 163.414 107.322C165.039 110.155 167.452 113.499 170.401 116.867C173.022 119.86 175.679 122.432 178.059 124.36L178.092 124.864L178.092 124.864C178.275 127.696 178.473 130.76 178.541 133.763C175.833 143.544 176.054 148.264 177.343 150.492C176.127 151.886 174.785 153.375 173.307 154.891C171.663 156.578 169.848 158.361 168.048 160.128L168.048 160.129C167.483 160.684 166.919 161.238 166.362 161.787C162.963 162.455 158.499 163.971 153.806 166.167C150.647 167.645 147.792 169.24 145.442 170.79C144.63 170.8 143.8 170.813 142.96 170.825C140.958 170.855 138.898 170.886 136.871 170.886C132.852 170.886 129.132 171.197 126.096 171.727C123.064 170.136 118.786 168.536 113.94 167.29C110.246 166.34 106.743 165.728 103.769 165.461C102.034 162.756 99.5485 159.618 96.5605 156.479C92.7826 152.51 88.9679 149.343 85.9621 147.521C86.4847 144.738 86.8504 141.461 86.9861 137.946C87.1103 134.732 87.0274 131.702 86.7781 129.054C88.5962 125.308 90.491 121.54 92.2715 118.714C94.678 114.894 96.5504 111.183 97.7101 108.115C100.588 107.544 103.922 106.599 107.404 105.317C112.089 103.592 116.175 101.575 119.031 99.6892C122.388 100.516 127.049 101.029 132.201 101.029ZM118.704 93.4223C122.083 92.5467 126.88 92 132.201 92C140.053 92 146.763 93.1904 149.46 94.8711C151.773 95.279 154.303 95.8698 156.925 96.6378C159.732 97.4598 162.34 98.3958 164.618 99.3694C165.918 99.6186 167.521 100.354 169.399 101.749C171.583 103.044 173.011 104.297 173.384 105.335C173.862 105.835 174.353 106.371 174.855 106.944C176.37 108.675 177.862 110.6 179.243 112.563C181.826 113.014 187.343 123.578 187.567 133.56C187.694 139.185 187.556 144.255 186.794 147.679C186.202 151.513 184.096 156.758 179.773 161.193C174.073 167.042 164.466 172.252 159.914 173.231C159.174 173.608 158.412 173.98 157.632 174.345C156.889 174.693 156.152 175.023 155.424 175.336C151.488 177.591 143.971 179.914 136.871 179.914C130.25 179.914 124.44 179.068 121.165 177.795C118.347 177.499 115.1 176.911 111.691 176.034C108.934 175.325 106.362 174.502 104.098 173.631C100.429 173.88 93.0086 171.715 87.3676 165.788C81.8169 159.112 79.606 154.715 79.0071 151.758C78.4644 149.541 78.0966 146.637 77.9629 143.337C76.5014 141.706 76.3159 133.581 80.1944 123.268C80.3742 122.745 80.5614 122.265 80.7545 121.835C81.7872 119.287 83.0665 116.622 84.6321 113.901C85.2168 110.438 87.1264 107.446 89.3586 105.167C89.7834 104.687 90.3402 104.178 91.013 103.65C92.1235 102.734 93.2525 101.995 94.2913 101.458C96.983 99.8795 100.431 98.2629 104.284 96.8441C109.912 94.7721 115.155 93.5816 118.704 93.4223Z" fill="#F8CC8B"/>
<path d="M142.141 100.325L142.667 99.4182L142.347 99.2321L141.98 99.289L142.141 100.325ZM154.388 105.303L154.682 104.297L154.388 105.303ZM163.414 107.322L164.323 106.801L164.07 106.359L163.566 106.285L163.414 107.322ZM170.401 116.867L171.189 116.177L170.401 116.867ZM178.059 124.36L179.105 124.292L179.075 123.835L178.719 123.546L178.059 124.36ZM178.092 124.864L177.046 124.931L177.046 124.941L178.092 124.864ZM178.092 124.864L179.137 124.796L179.137 124.787L178.092 124.864ZM178.541 133.763L179.551 134.043L179.592 133.894L179.589 133.74L178.541 133.763ZM177.343 150.492L178.133 151.181L178.626 150.616L178.25 149.967L177.343 150.492ZM173.307 154.891L172.557 154.16L173.307 154.891ZM168.048 160.128L167.314 159.381L167.307 159.387L168.048 160.128ZM168.048 160.129L168.782 160.877L168.789 160.87L168.048 160.129ZM166.362 161.787L166.564 162.815L166.873 162.755L167.098 162.533L166.362 161.787ZM153.806 166.167L154.25 167.116L153.806 166.167ZM145.442 170.79L145.455 171.838L145.762 171.835L146.019 171.665L145.442 170.79ZM142.96 170.825L142.976 171.873L142.96 170.825ZM126.096 171.727L125.609 172.655L125.925 172.821L126.276 172.76L126.096 171.727ZM113.94 167.29L113.679 168.305H113.679L113.94 167.29ZM103.769 165.461L102.887 166.027L103.164 166.459L103.675 166.505L103.769 165.461ZM96.5605 156.479L97.3196 155.756L96.5605 156.479ZM85.9621 147.521L84.932 147.328L84.798 148.041L85.4189 148.417L85.9621 147.521ZM86.9861 137.946L88.0334 137.987L86.9861 137.946ZM86.7781 129.054L85.8352 128.597L85.7072 128.861L85.7347 129.153L86.7781 129.054ZM92.2715 118.714L93.1583 119.272L92.2715 118.714ZM97.7101 108.115L97.5059 107.087L96.9355 107.201L96.7298 107.745L97.7101 108.115ZM107.404 105.317L107.766 106.3L107.404 105.317ZM119.031 99.6892L119.281 98.6716L118.836 98.5619L118.453 98.8146L119.031 99.6892ZM118.704 93.4223L118.751 94.4692L118.86 94.4643L118.967 94.4368L118.704 93.4223ZM149.46 94.8711L148.906 95.7605L149.078 95.8679L149.278 95.9032L149.46 94.8711ZM156.925 96.6378L156.631 97.6435L156.925 96.6378ZM164.618 99.3694L164.206 100.333L164.31 100.377L164.421 100.399L164.618 99.3694ZM169.399 101.749L168.774 102.59L168.818 102.623L168.865 102.651L169.399 101.749ZM173.384 105.335L172.397 105.689L172.472 105.898L172.626 106.059L173.384 105.335ZM174.855 106.944L174.066 107.635V107.635L174.855 106.944ZM179.243 112.563L178.386 113.166L178.636 113.521L179.063 113.596L179.243 112.563ZM187.567 133.56L188.615 133.536L187.567 133.56ZM186.794 147.679L185.771 147.451L185.763 147.485L185.758 147.519L186.794 147.679ZM179.773 161.193L180.523 161.925L179.773 161.193ZM159.914 173.231L159.693 172.207L159.56 172.235L159.438 172.297L159.914 173.231ZM157.632 174.345L158.076 175.294L157.632 174.345ZM155.424 175.336L155.01 174.373L154.955 174.397L154.903 174.427L155.424 175.336ZM121.165 177.795L121.544 176.818L121.414 176.767L121.274 176.753L121.165 177.795ZM111.691 176.034L111.43 177.049H111.43L111.691 176.034ZM104.098 173.631L104.474 172.653L104.258 172.569L104.027 172.585L104.098 173.631ZM87.3676 165.788L86.5617 166.458L86.5842 166.485L86.6084 166.511L87.3676 165.788ZM79.0071 151.758L80.0342 151.55L80.03 151.529L80.025 151.508L79.0071 151.758ZM77.9629 143.337L79.0101 143.295L78.9948 142.918L78.7434 142.638L77.9629 143.337ZM80.1944 123.268L81.1754 123.637L81.1807 123.623L81.1856 123.609L80.1944 123.268ZM80.7545 121.835L81.7109 122.263L81.7187 122.246L81.7258 122.228L80.7545 121.835ZM84.6321 113.901L85.5405 114.424L85.6342 114.261L85.6655 114.076L84.6321 113.901ZM89.3586 105.167L90.1071 105.901L90.1257 105.882L90.1434 105.862L89.3586 105.167ZM91.013 103.65L91.6603 104.474L91.67 104.466L91.6796 104.458L91.013 103.65ZM94.2913 101.458L94.7726 102.389L94.7974 102.376L94.8214 102.362L94.2913 101.458ZM104.284 96.8441L103.922 95.8606L104.284 96.8441ZM141.98 99.289C139.168 99.7256 135.812 99.9809 132.201 99.9809V102.077C135.905 102.077 139.37 101.815 142.302 101.36L141.98 99.289ZM154.682 104.297C149.803 102.868 145.564 101.099 142.667 99.4182L141.615 101.231C144.697 103.019 149.102 104.847 154.093 106.308L154.682 104.297ZM163.566 106.285C160.904 105.895 157.866 105.229 154.682 104.297L154.093 106.308C157.36 107.265 160.494 107.953 163.262 108.359L163.566 106.285ZM171.189 116.177C168.277 112.85 165.907 109.562 164.323 106.801L162.505 107.843C164.171 110.749 166.628 114.149 169.612 117.557L171.189 116.177ZM178.719 123.546C176.392 121.661 173.777 119.132 171.189 116.177L169.612 117.557C172.266 120.588 174.966 123.202 177.399 125.174L178.719 123.546ZM179.137 124.796L179.105 124.292L177.013 124.428L177.046 124.931L179.137 124.796ZM179.137 124.787L179.137 124.786L177.046 124.941L177.046 124.942L179.137 124.787ZM179.589 133.74C179.52 130.71 179.32 127.624 179.137 124.796L177.046 124.932C177.229 127.767 177.426 130.809 177.493 133.787L179.589 133.74ZM178.25 149.967C177.748 149.1 177.372 147.594 177.49 145.008C177.607 142.435 178.208 138.893 179.551 134.043L177.531 133.484C176.166 138.414 175.523 142.123 175.396 144.912C175.27 147.688 175.648 149.656 176.436 151.017L178.25 149.967ZM174.058 155.623C175.553 154.089 176.909 152.584 178.133 151.181L176.553 149.803C175.345 151.188 174.017 152.662 172.557 154.16L174.058 155.623ZM168.783 160.876C170.58 159.111 172.404 157.319 174.058 155.623L172.557 154.16C170.922 155.837 169.115 157.612 167.314 159.381L168.783 160.876ZM168.789 160.87L168.79 160.869L167.307 159.387L167.307 159.388L168.789 160.87ZM167.098 162.533C167.654 161.985 168.217 161.432 168.782 160.876L167.314 159.381C166.748 159.936 166.184 160.491 165.626 161.041L167.098 162.533ZM154.25 167.116C158.89 164.945 163.271 163.462 166.564 162.815L166.16 160.759C162.654 161.447 158.108 162.997 153.362 165.218L154.25 167.116ZM146.019 171.665C148.322 170.146 151.132 168.575 154.25 167.116L153.362 165.218C150.163 166.715 147.262 168.334 144.865 169.916L146.019 171.665ZM142.976 171.873C143.816 171.861 144.644 171.848 145.455 171.838L145.429 169.743C144.615 169.752 143.784 169.765 142.945 169.777L142.976 171.873ZM136.871 171.934C138.907 171.934 140.975 171.903 142.976 171.873L142.945 169.777C140.942 169.807 138.889 169.838 136.871 169.838V171.934ZM126.276 172.76C129.243 172.242 132.902 171.934 136.871 171.934V169.838C132.802 169.838 129.02 170.153 125.916 170.695L126.276 172.76ZM113.679 168.305C118.469 169.537 122.666 171.111 125.609 172.655L126.583 170.799C123.461 169.161 119.103 167.536 114.201 166.275L113.679 168.305ZM103.675 166.505C106.585 166.766 110.032 167.366 113.679 168.305L114.201 166.275C110.461 165.313 106.901 164.69 103.863 164.417L103.675 166.505ZM95.8013 157.201C98.7527 160.302 101.194 163.388 102.887 166.027L104.651 164.895C102.874 162.124 100.344 158.934 97.3196 155.756L95.8013 157.201ZM85.4189 148.417C88.3211 150.176 92.0644 153.275 95.8013 157.201L97.3196 155.756C93.5008 151.744 89.6147 148.509 86.5052 146.625L85.4189 148.417ZM85.9389 137.906C85.8049 141.376 85.4441 144.601 84.932 147.328L86.9921 147.715C87.5253 144.875 87.8959 141.547 88.0334 137.987L85.9389 137.906ZM85.7347 129.153C85.9793 131.75 86.0614 134.734 85.9389 137.906L88.0334 137.987C88.1591 134.731 88.0756 131.654 87.8215 128.956L85.7347 129.153ZM91.3848 118.155C89.5695 121.037 87.6518 124.853 85.8352 128.597L87.7209 129.512C89.5405 125.762 91.4125 122.044 93.1583 119.272L91.3848 118.155ZM96.7298 107.745C95.5998 110.734 93.7622 114.381 91.3848 118.155L93.1583 119.272C95.5938 115.406 97.5009 111.633 98.6904 108.486L96.7298 107.745ZM107.042 104.333C103.604 105.599 100.323 106.528 97.5059 107.087L97.9143 109.143C100.852 108.559 104.24 107.599 107.766 106.3L107.042 104.333ZM118.453 98.8146C115.682 100.644 111.673 102.628 107.042 104.333L107.766 106.3C112.505 104.555 116.668 102.505 119.608 100.564L118.453 98.8146ZM132.201 99.9809C127.108 99.9809 122.535 99.4732 119.281 98.6716L118.78 100.707C122.242 101.56 126.991 102.077 132.201 102.077V99.9809ZM118.967 94.4368C122.235 93.5899 126.939 93.048 132.201 93.048V90.952C126.821 90.952 121.93 91.5036 118.441 92.4077L118.967 94.4368ZM132.201 93.048C136.077 93.048 139.659 93.3422 142.589 93.8386C145.555 94.3412 147.738 95.0328 148.906 95.7605L150.014 93.9817C148.485 93.0287 145.965 92.2848 142.939 91.772C139.876 91.2531 136.176 90.952 132.201 90.952V93.048ZM149.278 95.9032C151.551 96.304 154.043 96.8857 156.631 97.6435L157.22 95.632C154.564 94.854 151.996 94.2541 149.642 93.839L149.278 95.9032ZM156.631 97.6435C159.401 98.4548 161.97 99.3771 164.206 100.333L165.03 98.4057C162.711 97.4145 160.063 96.4647 157.22 95.632L156.631 97.6435ZM164.421 100.399C165.515 100.608 166.973 101.252 168.774 102.59L170.024 100.908C168.07 99.4558 166.322 98.6288 164.815 98.3401L164.421 100.399ZM168.865 102.651C169.921 103.277 170.762 103.875 171.372 104.419C172.001 104.982 172.298 105.413 172.397 105.689L174.37 104.981C174.096 104.218 173.493 103.504 172.769 102.857C172.025 102.192 171.061 101.516 169.933 100.848L168.865 102.651ZM172.626 106.059C173.094 106.548 173.574 107.072 174.066 107.635L175.643 106.254C175.132 105.67 174.631 105.122 174.141 104.61L172.626 106.059ZM174.066 107.635C175.553 109.333 177.023 111.229 178.386 113.166L180.1 111.96C178.701 109.971 177.186 108.017 175.643 106.254L174.066 107.635ZM179.063 113.596C179.105 113.603 179.297 113.669 179.64 113.971C179.963 114.256 180.341 114.681 180.756 115.249C181.583 116.381 182.486 117.984 183.33 119.908C185.019 123.759 186.411 128.76 186.52 133.583L188.615 133.536C188.499 128.378 187.021 123.105 185.249 119.066C184.363 117.045 183.389 115.299 182.448 114.012C181.979 113.37 181.5 112.817 181.027 112.4C180.573 111.999 180.028 111.636 179.423 111.531L179.063 113.596ZM186.52 133.583C186.647 139.21 186.503 144.164 185.771 147.451L187.817 147.907C188.61 144.345 188.742 139.159 188.615 133.536L186.52 133.583ZM185.758 147.519C185.197 151.153 183.183 156.193 179.023 160.462L180.523 161.925C185.009 157.323 187.207 151.874 187.83 147.839L185.758 147.519ZM179.023 160.462C176.258 163.299 172.514 166.009 168.883 168.134C165.235 170.269 161.808 171.752 159.693 172.207L160.134 174.256C162.571 173.732 166.224 172.119 169.942 169.943C173.678 167.756 177.588 164.937 180.523 161.925L179.023 160.462ZM159.438 172.297C158.709 172.669 157.958 173.036 157.188 173.396L158.076 175.294C158.867 174.924 159.639 174.547 160.389 174.165L159.438 172.297ZM157.188 173.396C156.455 173.739 155.728 174.065 155.01 174.373L155.837 176.299C156.576 175.982 157.323 175.647 158.076 175.294L157.188 173.396ZM154.903 174.427C151.127 176.59 143.79 178.866 136.871 178.866V180.963C144.152 180.963 151.849 178.593 155.945 176.246L154.903 174.427ZM136.871 178.866C130.302 178.866 124.643 178.022 121.544 176.818L120.785 178.772C124.237 180.114 130.198 180.963 136.871 180.963V178.866ZM121.274 176.753C118.513 176.463 115.318 175.885 111.952 175.019L111.43 177.049C114.883 177.937 118.18 178.535 121.055 178.837L121.274 176.753ZM111.952 175.019C109.231 174.319 106.698 173.508 104.474 172.653L103.722 174.609C106.026 175.495 108.637 176.331 111.43 177.049L111.952 175.019ZM104.027 172.585C102.4 172.696 99.7932 172.268 96.8734 171.058C93.9725 169.855 90.8343 167.91 88.1267 165.066L86.6084 166.511C89.5419 169.593 92.9343 171.694 96.0709 172.994C99.1887 174.286 102.126 174.815 104.169 174.676L104.027 172.585ZM88.1734 165.118C82.6554 158.482 80.5807 154.248 80.0342 151.55L77.9799 151.966C78.6313 155.182 80.9784 159.743 86.5617 166.458L88.1734 165.118ZM80.025 151.508C79.5039 149.38 79.142 146.549 79.0101 143.295L76.9158 143.379C77.0513 146.724 77.4248 149.702 77.9891 152.007L80.025 151.508ZM78.7434 142.638C78.6002 142.478 78.3453 141.938 78.1874 140.817C78.0381 139.758 77.9973 138.344 78.1214 136.634C78.3693 133.218 79.2685 128.708 81.1754 123.637L79.2135 122.899C77.2419 128.142 76.2945 132.85 76.0309 136.483C75.8992 138.297 75.9365 139.865 76.1118 141.11C76.2786 142.293 76.5949 143.381 77.1825 144.037L78.7434 142.638ZM81.1856 123.609C81.3569 123.11 81.5327 122.661 81.7109 122.263L79.7982 121.406C79.59 121.87 79.3916 122.38 79.2033 122.928L81.1856 123.609ZM81.7258 122.228C82.7409 119.724 83.9993 117.102 85.5405 114.424L83.7238 113.378C82.1337 116.141 80.8335 118.85 79.7833 121.441L81.7258 122.228ZM85.6655 114.076C86.2047 110.883 87.9769 108.075 90.1071 105.901L88.61 104.434C86.276 106.816 84.229 109.994 83.5987 113.727L85.6655 114.076ZM90.1434 105.862C90.5144 105.443 91.0205 104.976 91.6603 104.474L90.3658 102.825C89.6598 103.38 89.0524 103.932 88.5738 104.473L90.1434 105.862ZM91.6796 104.458C92.7369 103.587 93.8042 102.889 94.7726 102.389L93.81 100.527C92.7008 101.1 91.5102 101.882 90.3465 102.841L91.6796 104.458ZM94.8214 102.362C97.4508 100.82 100.841 99.2288 104.647 97.8276L103.922 95.8606C100.021 97.2971 96.5151 98.9389 93.7612 100.554L94.8214 102.362ZM104.647 97.8276C110.219 95.7758 115.349 94.6219 118.751 94.4692L118.657 92.3753C114.96 92.5413 109.605 93.7683 103.922 95.8606L104.647 97.8276Z" fill="#DAA659" mask="url(#path-11-inside-3)"/>
<ellipse cx="131.734" cy="135.744" rx="49.8148" ry="37.8281" fill="#F9D59F"/>
<path fill-rule="evenodd" clip-rule="evenodd" d="M140.488 98.4805C138.164 98.1663 135.784 97.975 133.36 97.9157L137.959 105.776L140.488 98.4805ZM122.182 98.5934C119.759 98.9522 117.399 99.4448 115.115 100.061L119.234 107.098L122.182 98.5934ZM102.865 104.921C101.253 105.796 99.7123 106.743 98.2508 107.756L100.532 111.653L102.865 104.921ZM91.0844 113.918C88.9507 116.21 87.1421 118.691 85.7097 121.32L92.9134 133.629L96.5241 123.213L91.0844 113.918ZM82.0213 133.426C81.9534 134.237 81.919 135.055 81.919 135.88C81.919 141.615 83.5858 147.053 86.5703 151.928L88.9059 145.19L82.0213 133.426ZM93.525 160.253C95.2781 161.849 97.2 163.333 99.2698 164.691L99.6599 163.565L95.0859 155.75L93.525 160.253ZM124.341 173.448C124.899 173.511 125.459 173.567 126.022 173.616L124.93 171.751L124.341 173.448ZM143.1 172.87C144.262 172.664 145.408 172.426 146.536 172.158L144.533 168.736L143.1 172.87ZM155.709 169.183C155.671 169.199 155.634 169.215 155.596 169.23L148.541 157.176L151.787 147.811L158.903 159.97L155.709 169.183ZM169.876 160.313C172.113 158.285 174.077 156.076 175.724 153.719L172.701 148.553L169.09 158.97L169.876 160.313ZM180.537 143.534C181.2 141.062 181.549 138.502 181.549 135.88C181.549 132.818 181.074 129.841 180.176 126.989L176.709 136.993L180.537 143.534ZM174.158 115.962C171.78 113.022 168.89 110.348 165.584 108.012L163.413 114.274L170.529 126.433L174.158 115.962ZM157.374 103.307L157.233 103.714L156.858 103.074C157.03 103.151 157.203 103.228 157.374 103.307ZM115.139 171.607L109.847 162.565L113.458 152.149L118.75 161.191L115.139 171.607ZM122.757 149.63L117.465 140.588L121.407 129.219L126.698 138.261L122.757 149.63ZM111.285 130.028L115.227 118.659L110.653 110.843L106.712 122.213L111.285 130.028ZM130.706 126.701L125.414 117.658L128.66 108.294L133.952 117.336L130.706 126.701ZM103.667 152.005L107.278 141.589L102.704 133.773L99.0934 144.189L103.667 152.005ZM147.75 105.919L153.225 115.275L149.615 125.691L144.139 116.336L147.75 105.919ZM140.132 127.896L145.607 137.251L142.361 146.616L136.886 137.261L140.132 127.896ZM132.878 148.821L138.353 158.176L134.412 169.546L128.937 160.19L132.878 148.821ZM159.405 125.835L155.795 136.251L162.91 148.41L166.521 137.994L159.405 125.835Z" fill="#931F1F"/>
<path d="M52.9428 91.5571C49.5428 84.7572 42.1761 84.3928 38.4928 84.7571" stroke="#DEDEDE" stroke-width="0.85" stroke-linecap="round" stroke-linejoin="round"/>
<path d="M207.643 90.95C209.464 86.9429 211.164 85.3643 216.143 84.15" stroke="#DEDEDE" stroke-width="0.85" stroke-linecap="round" stroke-linejoin="round"/>
<path fill-rule="evenodd" clip-rule="evenodd" d="M67.2464 167.593C67.2289 167.788 67.1928 167.957 67.1394 168.105C67.1354 168.585 67.107 169.14 67.0493 169.781C66.6835 173.84 65.2758 179.818 64.5934 179.756C63.911 179.695 63.749 173.576 64.1148 169.517C64.1364 169.277 64.1593 169.05 64.1835 168.835C63.9223 168.795 63.6479 168.749 63.3619 168.699C63.3478 168.933 63.3291 169.181 63.3054 169.444C62.9396 173.503 61.5319 179.48 60.8495 179.419C60.1672 179.357 60.0051 173.239 60.3709 169.179C60.4011 168.845 60.4338 168.535 60.469 168.248C60.3306 168.233 60.1911 168.219 60.0505 168.206C59.9089 168.193 59.7682 168.182 59.6284 168.172C59.6135 168.461 59.5914 168.772 59.5613 169.106C59.1955 173.166 57.7878 179.143 57.1054 179.081C56.423 179.02 56.261 172.901 56.6268 168.842C56.6505 168.579 56.6757 168.332 56.7025 168.099C56.4122 168.097 56.1341 168.094 55.87 168.086C55.8564 168.302 55.8389 168.529 55.8173 168.769C55.4515 172.828 54.0438 178.806 53.3614 178.744C52.6791 178.683 52.5171 172.564 52.8828 168.504C52.9419 167.849 53.0112 167.287 53.0886 166.806C53.067 166.66 53.0638 166.497 53.0801 166.317C53.4755 161.929 55.8271 161.478 58.927 161.658L61.4388 119.011C61.4548 118.739 61.6926 118.534 61.9639 118.559L63.9849 118.741C64.2443 118.764 64.4384 118.989 64.4234 119.249L61.962 161.923C65.2304 162.28 67.6572 163.034 67.2464 167.593ZM41.6712 177.665C41.642 177.724 41.601 177.776 41.5501 177.819L39.6795 179.394C39.3513 179.67 38.8528 179.413 38.8876 178.986L41.0631 152.283L44.9374 119.561C44.968 119.303 45.1971 119.116 45.4559 119.137L48.7239 119.403C48.9985 119.426 49.1987 119.673 49.1633 119.946L44.3786 156.94C46.3892 159.231 48.2448 161.988 47.8184 167.222C47.3325 173.185 42.0929 177.442 41.7742 177.599C41.7489 177.612 41.7143 177.636 41.6724 177.664C41.672 177.665 41.6716 177.665 41.6712 177.665Z" fill="#A4A4A4"/>
<g clip-path="url(#clip0)">
<path d="M145.426 43.2092C145.424 44.9543 144.006 46.3531 142.252 46.3403C140.673 46.3287 139.37 45.1607 139.157 43.645H140.607C140.626 43.645 140.642 43.6581 140.646 43.6766C140.69 43.9007 140.784 44.1624 140.98 44.3741C141.217 44.6311 141.544 44.7614 141.952 44.7614H143.278C143.444 44.7614 143.578 44.6243 143.572 44.458C143.566 44.2995 143.431 44.1761 143.271 44.1761H141.952C141.713 44.1761 141.537 44.112 141.415 43.9802C141.299 43.8563 141.244 43.6895 141.218 43.5449C141.214 43.5207 141.233 43.4986 141.257 43.4986H143.271C143.431 43.4986 143.566 43.3752 143.572 43.2165C143.578 43.05 143.444 42.9134 143.278 42.9134H141.258C141.233 42.9134 141.214 42.8911 141.218 42.867C141.245 42.723 141.3 42.5573 141.415 42.434C141.537 42.3022 141.713 42.2381 141.952 42.2381H143.271C143.431 42.2381 143.566 42.1149 143.572 41.9562C143.578 41.7897 143.444 41.6528 143.278 41.6528H141.952C141.544 41.6528 141.217 41.7831 140.98 42.0401C140.785 42.2509 140.691 42.5117 140.646 42.7354C140.643 42.7539 140.626 42.767 140.607 42.767H139.157C139.371 41.2435 140.686 40.0714 142.276 40.0714C144.017 40.0714 145.428 41.4764 145.426 43.2092Z" fill="#F19A3E"/>
</g>
<path d="M148.32 44.758V41.2224H150.672V41.7339H148.936V42.7068H150.561V43.2184H148.936V44.2465H150.672V44.758H148.32ZM152.035 44.8081C151.858 44.8081 151.699 44.7747 151.558 44.7078C151.421 44.6376 151.313 44.544 151.232 44.427C151.155 44.31 151.117 44.1779 151.117 44.0308C151.117 43.8503 151.164 43.7082 151.257 43.6045C151.351 43.4975 151.503 43.4206 151.714 43.3738C151.924 43.327 152.207 43.3036 152.561 43.3036H152.737V43.1983C152.737 43.0311 152.7 42.9108 152.627 42.8372C152.553 42.7637 152.429 42.7269 152.255 42.7269C152.118 42.7269 151.978 42.7486 151.834 42.7921C151.69 42.8322 151.545 42.8957 151.398 42.9827L151.217 42.5564C151.304 42.4962 151.406 42.4444 151.523 42.4009C151.644 42.3541 151.769 42.319 151.899 42.2956C152.033 42.2689 152.158 42.2555 152.275 42.2555C152.633 42.2555 152.899 42.3391 153.073 42.5062C153.247 42.6701 153.334 42.9258 153.334 43.2735V44.758H152.747V44.3668C152.69 44.5039 152.6 44.6126 152.476 44.6928C152.352 44.7697 152.205 44.8081 152.035 44.8081ZM152.165 44.3769C152.329 44.3769 152.464 44.32 152.571 44.2063C152.682 44.0927 152.737 43.9489 152.737 43.775V43.6647H152.566C152.252 43.6647 152.033 43.6898 151.909 43.7399C151.789 43.7867 151.729 43.8737 151.729 44.0007C151.729 44.1111 151.767 44.2013 151.844 44.2715C151.921 44.3417 152.028 44.3769 152.165 44.3769ZM154.868 44.8081C154.66 44.8081 154.466 44.7831 154.286 44.7329C154.105 44.6828 153.955 44.6109 153.835 44.5173L153.995 44.106C154.119 44.1896 154.257 44.2548 154.411 44.3016C154.565 44.3451 154.719 44.3668 154.873 44.3668C155.033 44.3668 155.152 44.3401 155.229 44.2866C155.309 44.2297 155.349 44.1562 155.349 44.0659C155.349 43.9255 155.245 43.8352 155.038 43.7951L154.537 43.6998C154.112 43.6196 153.9 43.3989 153.9 43.0378C153.9 42.8773 153.943 42.7386 154.03 42.6216C154.12 42.5046 154.244 42.4143 154.401 42.3508C154.558 42.2872 154.739 42.2555 154.943 42.2555C155.117 42.2555 155.284 42.2806 155.444 42.3307C155.605 42.3775 155.742 42.4494 155.856 42.5464L155.685 42.9576C155.588 42.8773 155.471 42.8138 155.334 42.767C155.2 42.7202 155.072 42.6968 154.948 42.6968C154.784 42.6968 154.662 42.7252 154.582 42.7821C154.505 42.8389 154.466 42.9141 154.466 43.0077C154.466 43.1548 154.562 43.2451 154.752 43.2786L155.254 43.3738C155.471 43.414 155.635 43.4875 155.745 43.5945C155.859 43.7015 155.916 43.8453 155.916 44.0258C155.916 44.2699 155.821 44.4621 155.63 44.6025C155.439 44.7396 155.185 44.8081 154.868 44.8081ZM156.59 45.6607L157.042 44.6577L156.024 42.3056H156.691L157.378 44.0208L158.08 42.3056H158.712L157.237 45.6607H156.59ZM159.07 44.758V41.2224H160.614C160.985 41.2224 161.273 41.3043 161.477 41.4681C161.681 41.6286 161.783 41.8526 161.783 42.1401C161.783 42.3307 161.734 42.4945 161.637 42.6316C161.54 42.7687 161.407 42.869 161.236 42.9325C161.437 42.9894 161.592 43.0897 161.703 43.2334C161.816 43.3738 161.873 43.5527 161.873 43.77C161.873 44.0843 161.766 44.3284 161.552 44.5022C161.342 44.6727 161.047 44.758 160.669 44.758H159.07ZM159.687 42.7219H160.504C160.942 42.7219 161.161 42.553 161.161 42.2154C161.161 41.8777 160.942 41.7088 160.504 41.7088H159.687V42.7219ZM159.687 44.2715H160.589C161.031 44.2715 161.251 44.0943 161.251 43.7399C161.251 43.3855 161.031 43.2083 160.589 43.2083H159.687V44.2715ZM162.422 41.7791V41.1672H163.124V41.7791H162.422ZM162.462 44.758V42.3056H163.089V44.758H162.462ZM164.864 44.8081C164.215 44.8081 163.891 44.4872 163.891 43.8453V42.777H163.42V42.3056H163.891V41.5734H164.518V42.3056H165.26V42.777H164.518V43.8101C164.518 43.9706 164.553 44.091 164.623 44.1712C164.693 44.2515 164.807 44.2916 164.964 44.2916C165.011 44.2916 165.059 44.2866 165.11 44.2765C165.16 44.2632 165.212 44.2498 165.265 44.2364L165.36 44.6978C165.3 44.7312 165.223 44.758 165.13 44.7781C165.039 44.7981 164.951 44.8081 164.864 44.8081ZM166.849 44.8081C166.572 44.8081 166.333 44.7563 166.132 44.6527C165.932 44.549 165.776 44.4019 165.666 44.2114C165.559 44.0208 165.505 43.7951 165.505 43.5343C165.505 43.2802 165.557 43.0579 165.661 42.8673C165.768 42.6767 165.913 42.528 166.097 42.421C166.284 42.3106 166.497 42.2555 166.734 42.2555C167.082 42.2555 167.356 42.3658 167.556 42.5865C167.76 42.8071 167.862 43.108 167.862 43.4892V43.6747H166.107C166.154 44.1127 166.405 44.3317 166.859 44.3317C166.996 44.3317 167.134 44.3117 167.271 44.2715C167.408 44.2281 167.533 44.1612 167.647 44.0709L167.822 44.4922C167.705 44.5892 167.558 44.6661 167.381 44.7229C167.204 44.7797 167.027 44.8081 166.849 44.8081ZM166.759 42.6818C166.575 42.6818 166.426 42.7386 166.313 42.8523C166.199 42.9659 166.131 43.1197 166.107 43.3137H167.341C167.327 43.1097 167.271 42.9542 167.17 42.8473C167.073 42.7369 166.936 42.6818 166.759 42.6818ZM169.257 44.8081C169.049 44.8081 168.855 44.7831 168.675 44.7329C168.494 44.6828 168.344 44.6109 168.223 44.5173L168.384 44.106C168.508 44.1896 168.646 44.2548 168.8 44.3016C168.954 44.3451 169.108 44.3668 169.262 44.3668C169.422 44.3668 169.541 44.3401 169.618 44.2866C169.698 44.2297 169.738 44.1562 169.738 44.0659C169.738 43.9255 169.634 43.8352 169.427 43.7951L168.926 43.6998C168.501 43.6196 168.289 43.3989 168.289 43.0378C168.289 42.8773 168.332 42.7386 168.419 42.6216C168.509 42.5046 168.633 42.4143 168.79 42.3508C168.947 42.2872 169.128 42.2555 169.332 42.2555C169.506 42.2555 169.673 42.2806 169.833 42.3307C169.994 42.3775 170.131 42.4494 170.245 42.5464L170.074 42.9576C169.977 42.8773 169.86 42.8138 169.723 42.767C169.589 42.7202 169.461 42.6968 169.337 42.6968C169.173 42.6968 169.051 42.7252 168.971 42.7821C168.894 42.8389 168.855 42.9141 168.855 43.0077C168.855 43.1548 168.951 43.2451 169.141 43.2786L169.643 43.3738C169.86 43.414 170.024 43.4875 170.134 43.5945C170.248 43.7015 170.305 43.8453 170.305 44.0258C170.305 44.2699 170.209 44.4621 170.019 44.6025C169.828 44.7396 169.574 44.8081 169.257 44.8081Z" fill="#F19A3E"/>
<defs>
<clipPath id="clip0">
<rect width="6.26882" height="6.26882" fill="white" transform="translate(139.157 40.0714)"/>
</clipPath>
</defs>
</svg>
