<svg width="64" height="64" viewBox="0 0 64 64" fill="none" xmlns="http://www.w3.org/2000/svg">
<path d="M64 32.0344C63.982 49.8502 49.5046 64.1315 31.6014 64C15.4787 63.882 2.17822 51.958 0 36.4831H14.8002C14.9938 36.4831 15.1605 36.6175 15.198 36.8058C15.6514 39.0944 16.6136 41.7654 18.6072 43.927C21.0271 46.5502 24.3657 47.8812 28.5315 47.8812H42.0737C43.7701 47.8812 45.1361 46.4815 45.0746 44.783C45.016 43.1651 43.6289 41.9058 42.0017 41.9058H28.5315C26.0936 41.9058 24.2997 41.2515 23.0477 39.9055C21.8693 38.6402 21.3063 36.9372 21.0406 35.4613C20.9956 35.2148 21.1892 34.9892 21.4414 34.9892H42.0017C43.6304 34.9892 45.016 33.7284 45.0731 32.1091C45.1331 30.409 43.7671 29.0138 42.0722 29.0138H21.4459C21.1937 29.0138 21.0001 28.7867 21.0451 28.5402C21.3138 27.0703 21.8783 25.3792 23.0477 24.1199C24.2997 22.7739 26.0936 22.1196 28.5315 22.1196H42.0017C43.6289 22.1196 45.0145 20.8618 45.0746 19.2424C45.1361 17.5424 43.7701 16.1442 42.0737 16.1442H28.5315C24.3657 16.1442 21.0271 17.4752 18.6072 20.0984C16.6196 22.2511 15.6574 24.9131 15.2025 27.1972C15.165 27.3855 14.9968 27.5199 14.8047 27.5199H0C2.18873 11.9658 15.6123 0 31.8431 0C49.6157 0 64.018 14.3441 64 32.0344Z" fill="#72A276"/>
</svg>
