<svg width="50" height="50" viewBox="0 0 50 50" fill="none" xmlns="http://www.w3.org/2000/svg">
<path d="M30.7778 5C28.8142 5 27.2222 6.592 27.2222 8.55556C27.2222 10.5191 28.8142 12.1111 30.7778 12.1111H33.75L23.8194 22.0417C22.431 23.4301 22.431 25.681 23.8194 27.0694C24.5128 27.7628 25.424 28.1111 26.3333 28.1111C27.2427 28.1111 28.1539 27.7628 28.8472 27.0694L38.7778 17.1389V20.1111C38.7778 22.0747 40.3698 23.6667 42.3333 23.6667C44.2969 23.6667 45.8889 22.0747 45.8889 20.1111V8.55556C45.8889 6.592 44.2969 5 42.3333 5H30.7778ZM13 6.77778C8.58844 6.77778 5 10.3671 5 14.7778V37.8889C5 42.2996 8.58844 45.8889 13 45.8889H36.1111C40.5227 45.8889 44.1111 42.2996 44.1111 37.8889V30.7778C44.1111 28.8142 42.5191 27.2222 40.5556 27.2222C38.592 27.2222 37 28.8142 37 30.7778V37.8889C37 38.3787 36.6018 38.7778 36.1111 38.7778H13C12.5093 38.7778 12.1111 38.3787 12.1111 37.8889V14.7778C12.1111 14.288 12.5093 13.8889 13 13.8889H20.1111C22.0747 13.8889 23.6667 12.2969 23.6667 10.3333C23.6667 8.36978 22.0747 6.77778 20.1111 6.77778H13Z" fill="white"/>
</svg>
